<?xml version="1.0" encoding="iso-8859-1"?>
<!-- Uploaded to: SVG Repo, www.svgrepo.com, Generator: SVG Repo Mixer Tools -->
<svg fill="#000000" height="800px" width="800px" version="1.1" id="Layer_1" xmlns="http://www.w3.org/2000/svg" xmlns:xlink="http://www.w3.org/1999/xlink" 
	 viewBox="0 0 512 512" xml:space="preserve">
<g>
	<g>
		<path d="M256,0c-46.946,0-91.756,14.569-129.587,42.133C98.929,62.157,76.126,88.65,60.467,118.749
			c-16.189,31.12-24.746,66.229-24.746,101.53c0,58.117,22.633,111.037,59.535,150.442v23.4C95.256,459.12,148.136,512,213.135,512
			h85.73c64.999,0,117.879-52.88,117.879-117.879v-23.4c36.902-39.404,59.535-92.326,59.535-150.442C476.279,98.817,377.462,0,256,0
			z M95.281,310.902c-15.166-26.785-23.839-57.707-23.839-90.623c0-30.009,6.969-58.622,20.715-85.043
			c10.104-19.424,23.772-37.046,40.04-51.795c40.724,1.056,79.901,11.716,114.973,30.89c-34.202,9.293-65.617,27.431-91.466,53.28
			C117.221,206.093,95.821,256.91,95.281,310.902z M279.24,144.288c-7.667,19.213-20.819,35.747-38.249,47.735
			c-22.04,15.158-48.419,21.316-74.74,17.572c4.504-5.833,9.408-11.424,14.71-16.727
			C207.948,165.881,242.246,149.054,279.24,144.288z M381.023,394.121c0,45.302-36.856,82.158-82.158,82.158h-85.73
			c-45.302,0-82.158-36.856-82.158-82.158v-25.046c10.87,14.475,28.174,23.856,47.628,23.856c32.828,0,59.535-26.707,59.535-59.535
			c0-32.828-26.707-59.535-59.535-59.535c-19.004,0-35.944,8.96-46.85,22.866c1.809-18.965,6.775-37.288,14.637-54.367l8.91,1.648
			c8.686,1.607,17.393,2.4,26.039,2.4c26.313,0,52.035-7.367,74.676-21.544c22.553,14.065,48.615,21.493,75.043,21.493
			c8.544,0,17.127-0.775,25.638-2.349l5.597-1.036c6.526,16.001,11.399,32.658,14.534,49.766
			c-10.87-11.605-26.314-18.877-43.433-18.877c-32.828,0-59.535,26.707-59.535,59.535c0,32.828,26.707,59.535,59.535,59.535
			c19.454,0,36.758-9.38,47.628-23.856V394.121z M154.791,333.395c0-13.131,10.683-23.814,23.814-23.814
			c13.131,0,23.814,10.683,23.814,23.814c0,13.131-10.683,23.814-23.814,23.814C165.474,357.209,154.791,346.526,154.791,333.395z
			 M285.516,200.373c10.215-11.129,18.53-23.793,24.683-37.58c13.748,14.396,25.62,30.1,35.518,46.811
			C325.102,212.505,304.139,209.216,285.516,200.373z M357.209,333.395c0,13.131-10.683,23.814-23.814,23.814
			c-13.131,0-23.814-10.683-23.814-23.814c0-13.131,10.683-23.814,23.814-23.814C346.526,309.581,357.209,320.264,357.209,333.395z
			 M415.576,312.908c-6.008-67.733-35.423-130.783-84.376-179.736c-42.288-42.288-95.096-69.989-152.353-80.628
			C202.841,41.472,228.997,35.721,256,35.721c101.765,0,184.558,82.793,184.558,184.558
			C440.558,254.017,431.451,285.666,415.576,312.908z"/>
	</g>
</g>
<g>
	<g>
		<path d="M226.233,404.837c0,16.44,13.328,29.767,29.767,29.767s29.767-13.328,29.767-29.767H226.233z"/>
	</g>
</g>
</svg>